<?xml version="1.0" encoding="UTF-8" standalone="no"?>
<!DOCTYPE svg PUBLIC "-//W3C//DTD SVG 1.1//EN" "http://www.w3.org/Graphics/SVG/1.1/DTD/svg11.dtd">
<svg width="100%" height="100%" viewBox="0 0 330 312" version="1.1" xmlns="http://www.w3.org/2000/svg" xmlns:xlink="http://www.w3.org/1999/xlink" xml:space="preserve" xmlns:serif="http://www.serif.com/" style="fill-rule:evenodd;clip-rule:evenodd;stroke-linejoin:round;stroke-miterlimit:2;">
    <g id="Artboard1" transform="matrix(0.422727,0,0,1,0,0)">
        <rect x="0" y="0" width="778.496" height="311.735" style="fill:none;"/>
        <clipPath id="_clip1">
            <rect x="0" y="0" width="778.496" height="311.735"/>
        </clipPath>
        <g clip-path="url(#_clip1)">
            <g id="Layer-1" serif:id="Layer 1" transform="matrix(9.85663,0,0,4.16667,20.8394,0)">
                <g>
                    <g transform="matrix(0.241674,0,0,0.238513,-2.29769,0.483702)">
                        <path d="M117.406,62.209C117.407,63.848 117.428,64.671 117.428,66.351C117.457,68.073 117.428,68.922 117.457,70.638L117.457,74.936C117.457,76.641 117.478,77.496 117.478,79.184C117.544,79.285 117.544,79.296 117.565,79.357C117.594,79.408 117.594,79.436 117.623,79.492C117.645,79.564 117.667,79.581 117.689,79.643C117.739,79.693 117.739,79.732 117.761,79.771C117.826,79.849 117.826,79.866 117.884,79.916C117.993,79.978 118.022,79.995 118.073,80.056C118.095,80.112 118.138,80.118 118.189,80.185C118.283,80.263 118.305,80.285 118.355,80.347C118.406,80.375 118.406,80.391 118.421,80.431C118.471,80.509 118.493,80.52 118.515,80.565C118.544,80.621 118.566,80.66 118.587,80.693C118.587,80.727 118.609,80.76 118.638,80.811L118.638,82.225C118.609,82.303 118.609,82.353 118.587,82.392C118.566,82.493 118.566,82.51 118.544,82.582C118.515,82.655 118.515,82.672 118.493,82.789C118.471,82.828 118.421,82.867 118.406,82.957C118.406,83.002 118.355,83.035 118.326,83.074C118.305,83.113 118.305,83.136 118.283,83.164C118.21,83.225 118.21,83.242 118.189,83.281C118.189,83.32 118.189,83.343 118.116,83.371C118.095,83.398 118.095,83.432 118.073,83.449C118.073,83.471 118.073,83.471 118.022,83.488C118.022,83.51 118.022,83.533 117.993,83.544C117.993,83.561 117.95,83.583 117.906,83.611L117.906,83.751C117.906,83.784 117.95,83.834 117.95,83.879C117.95,83.929 117.95,83.957 117.993,84.019C117.993,84.075 117.95,84.086 117.95,84.17C117.993,86.635 117.993,87.864 118.022,90.346L118.022,96.555C118.022,99.026 118.044,100.244 118.073,102.743L118.073,108.924C118.138,108.991 118.189,109.003 118.232,109.047C118.305,109.103 118.355,109.131 118.421,109.193C118.515,109.254 118.544,109.271 118.587,109.321C118.638,109.383 118.682,109.416 118.754,109.478C118.805,109.511 118.87,109.55 118.943,109.589C119.022,109.606 119.037,109.623 119.109,109.707C119.16,109.718 119.182,109.768 119.254,109.813C119.341,109.858 119.392,109.886 119.443,109.925C119.472,110.003 119.494,110.065 119.494,110.176C119.494,110.249 119.508,110.288 119.537,110.389C119.537,110.473 119.559,110.528 119.588,110.629C119.61,110.713 119.61,110.735 119.653,110.875L119.653,111.646C119.61,111.708 119.61,111.708 119.588,111.758C119.559,111.814 119.559,111.853 119.537,111.915C119.508,111.943 119.494,111.97 119.494,112.026C119.494,112.077 119.494,112.105 119.472,112.138C119.392,112.211 119.341,112.239 119.283,112.311C119.254,112.367 119.182,112.406 119.16,112.44C119.08,112.513 119.059,112.557 119.037,112.602C118.943,112.664 118.921,112.708 118.805,112.736C118.87,112.988 118.87,113.099 118.87,113.345L118.87,115.117C118.943,115.128 118.972,115.162 118.972,115.195C119.037,115.212 119.059,115.229 119.109,115.29C119.131,115.318 119.16,115.318 119.182,115.335C119.254,115.38 119.254,115.436 119.283,115.458C119.443,115.503 119.494,115.503 119.653,115.514C119.726,115.559 119.82,115.559 119.943,115.592C120.059,115.615 120.131,115.615 120.247,115.643C120.371,115.665 120.458,115.665 120.552,115.704L120.856,115.704C120.958,115.693 121.009,115.693 121.125,115.693L121.407,115.693C121.48,115.665 121.574,115.665 121.668,115.665C121.813,115.704 121.886,115.721 121.951,115.782C122.067,115.821 122.118,115.821 122.255,115.877C122.357,115.911 122.4,115.928 122.502,115.972C122.661,116.011 122.683,116.039 122.806,116.056C122.835,116.19 122.835,116.229 122.835,116.358C122.901,116.481 122.901,116.57 122.901,116.66C122.951,116.822 122.973,116.872 122.995,117.006C123.024,117.101 123.024,117.168 123.089,117.308C123.089,117.42 123.089,117.515 123.14,117.632C123.162,117.744 123.162,117.822 123.183,117.968C123.183,118.079 123.212,118.141 123.212,118.286C123.234,118.409 123.234,118.454 123.256,118.616C123.299,118.672 123.299,118.7 123.328,118.761C123.35,118.84 123.35,118.851 123.401,118.907C123.401,119.007 123.401,119.041 123.444,119.08C123.466,119.175 123.495,119.175 123.495,119.276C123.538,119.354 123.611,119.376 123.633,119.443C123.712,119.51 123.727,119.555 123.749,119.633C123.821,119.695 123.85,119.745 123.894,119.834C123.923,119.89 123.937,119.952 124.01,120.008C124.133,120.114 124.155,120.142 124.3,120.226C124.445,120.326 124.488,120.382 124.582,120.477C124.698,120.572 124.771,120.611 124.894,120.718C125.01,120.818 125.053,120.863 125.177,120.958C125.314,121.07 125.387,121.086 125.554,121.176C125.691,121.276 125.742,121.327 125.909,121.422C126.076,121.539 126.163,121.55 126.286,121.673C126.431,121.757 126.503,121.802 126.692,121.891L126.692,122.936C126.692,123.171 126.713,123.272 126.713,123.501L126.713,125.178C126.692,125.351 126.619,125.401 126.619,125.575C126.59,125.72 126.547,125.787 126.525,125.932C126.503,126.083 126.503,126.139 126.453,126.29C126.453,126.441 126.431,126.519 126.431,126.67C126.315,126.737 126.213,126.787 126.141,126.86C125.974,126.927 125.909,126.95 125.815,127.045C125.691,127.117 125.626,127.167 125.503,127.235C125.387,127.307 125.314,127.341 125.198,127.419C125.271,127.52 125.271,127.581 125.314,127.631C125.387,127.726 125.438,127.788 125.481,127.9C125.525,127.978 125.554,128.023 125.575,128.084C125.626,128.201 125.648,128.235 125.713,128.324C125.742,128.369 125.815,128.408 125.858,128.459C125.909,128.537 125.952,128.548 126.025,128.637C126.076,128.665 126.141,128.727 126.163,128.777C126.213,128.839 126.264,128.872 126.315,128.917C126.264,129.045 126.264,129.107 126.213,129.252C126.192,129.364 126.163,129.426 126.163,129.576C126.141,129.716 126.076,129.744 126.054,129.873C125.974,130.035 125.974,130.063 125.952,130.191C125.836,130.37 125.742,130.432 125.648,130.571C125.554,130.728 125.503,130.823 125.387,130.974C125.271,131.102 125.198,131.164 125.104,131.326C124.959,131.46 124.916,131.538 124.8,131.706C124.582,131.706 124.488,131.706 124.278,131.717C124.06,131.717 123.937,131.756 123.749,131.767C123.517,131.767 123.422,131.767 123.234,131.795C123.024,131.795 122.901,131.795 122.734,131.818C122.4,131.846 122.284,131.857 121.951,131.874C121.646,131.896 121.48,131.896 121.248,131.913C120.907,131.957 120.719,131.969 120.458,131.991C120.153,132.002 119.986,132.002 119.682,132.025C119.653,132.064 119.653,132.103 119.588,132.164C119.537,132.22 119.494,132.231 119.472,132.293C119.421,132.354 119.421,132.382 119.341,132.399C119.283,132.466 119.283,132.505 119.204,132.528L119.204,133.785C119.537,141.671 119.682,145.617 120.008,153.549C120.371,161.424 120.537,165.403 120.856,173.318C121.168,181.265 121.335,185.228 121.646,193.193C121.973,201.135 122.161,205.12 122.502,213.085C122.574,213.141 122.574,213.152 122.661,213.202C122.683,213.23 122.683,213.314 122.763,213.342C122.806,213.409 122.835,213.42 122.901,213.459C122.973,213.521 122.995,213.577 123.067,213.61C125.271,213.878 126.358,214.024 128.627,214.314C130.853,214.599 131.947,214.745 134.151,215.024C136.398,215.332 137.536,215.443 139.74,215.684C141.987,215.985 143.125,216.142 145.329,216.382L145.329,215.024C145.445,215.024 145.517,215.024 145.611,215.046C145.756,215.046 145.822,215.063 145.967,215.063C146.039,215.08 146.133,215.08 146.249,215.108C146.351,215.125 146.394,215.141 146.51,215.141C146.51,215.281 146.532,215.332 146.532,215.46L146.532,215.756C146.532,215.89 146.51,215.952 146.51,216.08L146.51,216.382C146.916,216.449 147.112,216.477 147.482,216.516C147.909,216.572 148.047,216.589 148.453,216.651C148.808,216.684 148.997,216.729 149.381,216.768C149.78,216.813 149.946,216.846 150.374,216.874C150.352,216.667 150.352,216.572 150.352,216.371C150.352,216.317 150.354,216.27 150.356,216.228L150.371,215.989C150.373,215.947 150.374,215.9 150.374,215.846C150.374,215.639 150.352,215.527 150.352,215.332L150.352,214.778C151.527,214.918 152.099,215.007 153.288,215.125C154.499,215.242 155.064,215.332 156.217,215.443C157.405,215.572 158.043,215.639 159.189,215.756C160.392,215.89 160.965,215.952 162.146,216.064C162.19,216.215 162.219,216.287 162.335,216.449C162.378,216.589 162.407,216.667 162.501,216.846C162.596,216.952 162.617,217.047 162.69,217.193C162.733,217.349 162.762,217.4 162.878,217.556C162.929,217.651 162.973,217.685 163.016,217.813C163.096,217.914 163.118,217.93 163.161,218.026C163.212,218.121 163.234,218.199 163.277,218.299C163.299,218.372 163.379,218.439 163.4,218.534C164.488,218.691 165.06,218.769 166.169,218.925C167.257,219.087 167.829,219.177 168.917,219.328C169.982,219.484 170.526,219.579 171.613,219.725C172.751,219.853 173.302,219.987 174.411,220.121L174.411,231.602C174.411,233.876 174.484,235.005 174.484,237.314C174.484,239.594 174.484,240.774 174.506,243.032C174.694,243.048 174.817,243.071 175.057,243.093C175.289,243.127 175.405,243.127 175.644,243.149C175.883,243.177 176.021,243.205 176.216,243.222C176.448,243.244 176.586,243.244 176.833,243.25L176.833,241.886C176.804,241.595 176.804,241.489 176.804,241.198L176.804,240.505C176.876,240.505 176.905,240.505 176.949,240.516C177.043,240.516 177.065,240.505 177.159,240.516L177.325,240.516C177.398,240.516 177.441,240.505 177.492,240.505C177.514,240.298 177.565,240.187 177.586,239.963C177.63,239.734 177.659,239.639 177.753,239.404C177.775,239.181 177.775,239.069 177.818,238.845C177.847,238.638 177.891,238.51 177.963,238.27C178.63,238.091 178.964,237.99 179.667,237.828C180.406,237.621 180.74,237.521 181.443,237.331C182.132,237.141 182.465,237.034 183.204,236.856C183.886,236.649 184.241,236.559 184.922,236.375L184.922,224.554C184.857,219.825 184.857,217.461 184.857,212.727C184.835,207.987 184.835,205.623 184.785,200.889C184.785,196.177 184.785,193.808 184.763,189.096C185.524,189.129 185.901,189.157 186.655,189.191C187.394,189.219 187.742,189.247 188.482,189.303C189.243,189.364 189.569,189.364 190.352,189.403C191.062,189.437 191.439,189.454 192.171,189.493C192.367,189.565 192.461,189.627 192.65,189.716C192.86,189.811 192.911,189.856 193.15,189.945C193.331,190.035 193.411,190.08 193.621,190.175C193.81,190.275 193.882,190.286 194.07,190.404C194.121,190.482 194.165,190.532 194.237,190.622C194.281,190.717 194.36,190.756 194.375,190.873C194.469,190.946 194.469,191.007 194.498,191.058C194.592,191.169 194.614,191.209 194.687,191.292C194.897,191.326 195.013,191.354 195.252,191.404C195.448,191.432 195.564,191.449 195.774,191.533C195.991,191.566 196.107,191.566 196.325,191.628C196.535,191.661 196.673,191.7 196.861,191.756L197.528,191.756C197.601,191.745 197.622,191.7 197.717,191.7C197.717,191.566 197.738,191.494 197.789,191.326C197.811,191.197 197.811,191.114 197.84,190.963C197.862,190.834 197.927,190.717 197.956,190.571C197.978,190.432 197.999,190.342 197.999,190.191C199.253,190.275 199.87,190.286 201.102,190.381C202.334,190.448 202.95,190.448 204.183,190.532C205.393,190.588 206.053,190.622 207.235,190.7C208.518,190.756 209.112,190.817 210.366,190.896L210.366,194.964C210.366,196.552 210.366,197.379 210.395,198.989L210.395,207.115C210.547,207.272 210.605,207.322 210.743,207.484C210.91,207.613 210.96,207.708 211.098,207.848C211.214,208.01 211.287,208.066 211.453,208.2C211.548,208.328 211.642,208.406 211.743,208.552C211.975,208.552 212.048,208.552 212.229,208.535C212.403,208.513 212.519,208.502 212.664,208.502C212.903,208.474 212.968,208.474 213.113,208.434C213.302,208.423 213.396,208.423 213.563,208.406C213.751,208.328 213.78,208.295 213.947,208.233C214.034,208.177 214.136,208.155 214.223,208.099C214.389,208.043 214.483,208.021 214.628,207.948C214.744,207.909 214.817,207.848 214.911,207.803C215.194,207.825 215.31,207.825 215.527,207.831C215.788,207.848 215.933,207.881 216.143,207.881C216.404,207.909 216.52,207.909 216.781,207.909C216.999,207.948 217.137,207.948 217.398,207.948C217.637,208.01 217.753,208.043 218.014,208.099C218.296,208.144 218.412,208.155 218.652,208.233C218.913,208.295 219.058,208.311 219.311,208.384C219.558,208.423 219.724,208.474 219.978,208.513C220.072,208.597 220.174,208.613 220.239,208.703C220.384,208.775 220.428,208.82 220.602,208.87C220.689,208.949 220.79,208.999 220.906,209.083C221.022,209.155 221.073,209.2 221.167,209.273L221.167,212.57C221.283,212.688 221.334,212.727 221.471,212.878C221.566,213.006 221.616,213.068 221.711,213.185C221.827,213.325 221.87,213.392 221.993,213.493C222.117,213.649 222.16,213.722 222.254,213.834C222.421,213.834 222.472,213.856 222.61,213.856C222.754,213.878 222.892,213.878 223.037,213.878C223.153,213.895 223.204,213.895 223.392,213.895C223.53,213.912 223.603,213.912 223.791,213.934C223.936,213.962 224.001,213.996 224.168,214.046C224.364,214.124 224.458,214.135 224.617,214.197C224.762,214.27 224.857,214.27 225.074,214.331C225.241,214.359 225.284,214.409 225.458,214.443L225.458,219.501C225.241,219.579 225.139,219.607 224.878,219.708C224.668,219.758 224.552,219.803 224.313,219.853C224.103,219.931 223.987,219.959 223.769,220.026C223.53,220.088 223.414,220.121 223.175,220.161C223.081,220.222 223.037,220.239 222.914,220.311C222.82,220.351 222.725,220.39 222.653,220.44C222.566,220.474 222.486,220.507 222.378,220.535C222.276,220.636 222.254,220.636 222.138,220.664C222.16,220.826 222.16,220.915 222.182,221.044L222.182,221.429C222.204,221.558 222.204,221.647 222.254,221.793C222.254,221.938 222.276,222.005 222.276,222.178C222.378,222.212 222.443,222.24 222.566,222.29C222.631,222.329 222.725,222.385 222.82,222.43C222.914,222.458 223.015,222.502 223.081,222.542C223.175,222.592 223.247,222.614 223.371,222.653L224.436,222.72C224.617,222.72 224.741,222.754 224.951,222.782C225.139,222.799 225.263,222.799 225.458,222.799L225.458,224.179C225.661,224.218 225.734,224.235 225.922,224.28C226.118,224.308 226.14,224.325 226.306,224.375C226.466,224.408 226.546,224.42 226.727,224.487C226.915,224.498 226.966,224.515 227.162,224.576C227.227,224.498 227.227,224.487 227.3,224.42C227.394,224.375 227.394,224.347 227.466,224.308C227.51,224.257 227.532,224.257 227.611,224.179C227.655,224.146 227.677,224.118 227.749,224.084L227.749,216.064C227.749,212.878 227.677,211.257 227.677,208.043L227.677,200.045C227.655,196.854 227.655,195.222 227.655,192.041C227.894,192.058 227.988,192.075 228.242,192.136C228.481,192.136 228.554,192.136 228.793,192.153C229.003,192.192 229.148,192.215 229.387,192.231C229.597,192.243 229.735,192.282 229.953,192.282C230.206,192.304 230.351,192.304 230.612,192.349C230.924,192.371 231.04,192.371 231.323,192.421C231.605,192.433 231.729,192.433 231.961,192.477C232.251,192.511 232.388,192.511 232.678,192.533L232.678,188.397C233.055,188.375 233.244,188.397 233.577,188.375C233.954,188.375 234.114,188.397 234.454,188.397C234.831,188.397 235.02,188.375 235.324,188.375C235.759,188.375 235.897,188.397 236.252,188.397C236.274,188.045 236.274,187.849 236.303,187.475C236.324,187.095 236.368,186.91 236.368,186.53C236.419,186.189 236.419,185.977 236.419,185.625C236.462,185.245 236.462,185.055 236.491,184.719C237.412,184.719 237.883,184.731 238.76,184.753C239.666,184.781 240.137,184.792 241.036,184.809C241.957,184.826 242.414,184.848 243.334,184.87C244.233,184.87 244.682,184.893 245.625,184.921C245.654,185.29 245.654,185.468 245.676,185.793C245.705,186.189 245.705,186.357 245.726,186.72C245.77,187.084 245.77,187.246 245.792,187.626C245.813,187.961 245.813,188.14 245.842,188.492C246.27,188.565 246.502,188.565 246.886,188.61C247.285,188.643 247.531,188.643 247.93,188.66C248.307,188.699 248.495,188.716 248.894,188.744C249.322,188.777 249.518,188.794 249.916,188.811L249.916,192.019C249.916,192.477 249.938,192.684 249.938,193.092C250.271,193.137 250.438,193.154 250.743,193.193C251.098,193.226 251.315,193.254 251.598,193.282C251.953,193.332 252.12,193.332 252.381,193.36C252.787,193.377 252.925,193.399 253.258,193.422L252.903,211.635C252.903,211.635 231.328,260.81 172.222,260.81C113.116,260.81 71.498,203.203 71.165,202.706C71.875,202.823 72.571,202.918 73.448,203.058C75.065,203.298 75.862,203.438 77.522,203.65C79.161,203.89 79.958,204.013 81.618,204.237C83.205,204.477 84.032,204.589 85.67,204.835C85.786,205.031 85.837,205.12 85.975,205.327C86.098,205.539 86.119,205.623 86.235,205.841C86.33,206.042 86.38,206.143 86.496,206.35C86.62,206.556 86.663,206.674 86.808,206.836C86.997,206.987 87.113,207.037 87.374,207.171C87.562,207.272 87.707,207.322 87.874,207.434C88.106,207.551 88.229,207.613 88.439,207.741C88.7,207.848 88.773,207.931 89.034,208.043C89.505,208.099 89.766,208.155 90.215,208.233C90.715,208.328 90.947,208.384 91.397,208.474C91.94,208.552 92.158,208.597 92.658,208.703C93.151,208.775 93.39,208.82 93.869,208.893C94.412,208.949 94.622,209.01 95.144,209.083C95.637,209.155 95.898,209.172 96.42,209.25C96.92,209.334 97.203,209.373 97.703,209.44C98.218,209.502 98.457,209.541 98.957,209.614C99.24,209.502 99.385,209.457 99.617,209.362C99.878,209.25 100.001,209.2 100.284,209.083C100.567,208.999 100.733,208.932 100.965,208.837C101.255,208.719 101.371,208.703 101.632,208.569C102.082,208.669 102.27,208.703 102.698,208.803C103.22,208.893 103.408,208.932 103.836,209.038C104.285,209.139 104.496,209.2 104.923,209.273C105.423,209.373 105.634,209.44 106.083,209.513C106.532,201.895 106.815,198.061 107.25,190.415C107.794,182.763 108.004,178.929 108.475,171.25C108.968,163.57 109.215,159.691 109.708,151.956C110.179,144.259 110.418,140.397 110.896,132.617L110.896,132.064C110.469,132.025 110.229,132.002 109.78,131.991C109.331,131.957 109.12,131.913 108.664,131.874C108.214,131.857 108.026,131.846 107.576,131.795C107.098,131.767 106.895,131.756 106.438,131.706C106.322,131.656 106.228,131.577 106.105,131.505C105.945,131.426 105.895,131.399 105.75,131.309C105.59,131.236 105.518,131.181 105.394,131.102C105.228,131.035 105.162,130.985 105.039,130.895C105.017,130.784 104.923,130.728 104.88,130.638C104.851,130.532 104.807,130.476 104.713,130.37C104.662,130.236 104.662,130.18 104.597,130.063C104.496,129.945 104.474,129.895 104.43,129.8L104.43,128.654C104.474,128.637 104.525,128.61 104.597,128.548C104.662,128.52 104.662,128.52 104.713,128.459C104.807,128.419 104.851,128.408 104.88,128.369C104.923,128.324 105.017,128.324 105.068,128.263C105.09,128.235 105.119,128.213 105.184,128.151C105.228,128.123 105.228,128.084 105.3,128.045C105.322,127.978 105.38,127.978 105.394,127.916C105.445,127.877 105.467,127.838 105.489,127.805C105.467,127.726 105.467,127.726 105.445,127.671C105.445,127.609 105.423,127.581 105.394,127.52C105.38,127.48 105.38,127.441 105.38,127.391C105.322,127.341 105.3,127.307 105.3,127.235C105.206,127.179 105.162,127.167 105.09,127.117C105.017,127.045 104.923,126.989 104.851,126.95C104.785,126.888 104.713,126.877 104.662,126.799C104.597,126.771 104.525,126.737 104.452,126.67C104.401,126.575 104.38,126.519 104.307,126.419C104.285,126.329 104.235,126.256 104.191,126.156C104.09,126.066 104.075,126.005 104.032,125.888C103.974,125.809 103.908,125.787 103.836,125.681C103.836,125.535 103.836,125.463 103.814,125.351C103.785,125.195 103.785,125.127 103.785,124.988C103.742,124.87 103.742,124.798 103.713,124.669C103.713,124.524 103.691,124.462 103.669,124.334C103.691,124.155 103.691,124.065 103.691,123.892L103.691,123.439C103.691,123.272 103.713,123.171 103.713,122.992L103.713,122.568C103.785,122.484 103.814,122.433 103.836,122.305C103.952,122.232 103.974,122.204 104.032,122.087C104.075,122.009 104.119,121.97 104.191,121.852C104.235,121.791 104.285,121.724 104.336,121.629C104.452,121.539 104.525,121.483 104.662,121.388C104.785,121.276 104.851,121.226 105.017,121.137C105.09,121.036 105.162,120.991 105.3,120.874C105.445,120.779 105.489,120.74 105.605,120.611C105.75,120.533 105.844,120.477 105.967,120.382C106.105,120.287 106.156,120.254 106.322,120.142C106.416,120.069 106.489,120.024 106.627,119.89C106.772,119.818 106.844,119.762 106.96,119.672C106.938,119.477 106.938,119.376 106.938,119.175C106.917,118.979 106.917,118.873 106.917,118.7L106.917,118.186C106.895,118.007 106.895,117.94 106.866,117.744C106.866,117.588 106.895,117.515 106.895,117.364C106.917,117.219 106.917,117.157 106.917,117.023L106.917,116.688C106.917,116.554 106.917,116.453 106.938,116.324C106.96,116.28 107.004,116.28 107.054,116.229C107.098,116.19 107.098,116.179 107.149,116.134C107.199,116.09 107.221,116.056 107.25,116.011C107.344,115.972 107.344,115.95 107.388,115.911C107.482,115.894 107.511,115.894 107.62,115.877C107.671,115.849 107.721,115.838 107.837,115.821C107.932,115.821 107.932,115.821 108.026,115.793C108.098,115.793 108.171,115.782 108.214,115.782C108.403,115.732 108.453,115.721 108.598,115.721L108.968,115.665C109.12,115.643 109.215,115.643 109.331,115.626C109.497,115.615 109.57,115.615 109.729,115.592C109.802,115.592 109.874,115.57 109.918,115.57L110.396,115.57C110.469,115.559 110.469,115.559 110.606,115.559C110.635,115.318 110.635,115.195 110.679,114.972C110.679,114.715 110.679,114.603 110.701,114.396C110.701,114.161 110.722,114.022 110.722,113.793C110.795,113.586 110.824,113.457 110.846,113.239L110.846,112.473C110.795,112.423 110.773,112.406 110.722,112.367C110.701,112.328 110.701,112.261 110.679,112.239C110.679,112.172 110.635,112.138 110.606,112.105C110.512,112.06 110.512,112.043 110.469,111.987L110.469,111.725C110.49,111.63 110.49,111.568 110.49,111.451C110.49,111.361 110.512,111.322 110.512,111.21L110.512,110.948C110.49,110.875 110.49,110.836 110.49,110.752C110.49,110.685 110.49,110.657 110.469,110.607L110.469,110.4C110.469,110.322 110.469,110.305 110.418,110.232C110.49,110.193 110.512,110.176 110.606,110.12C110.679,110.076 110.679,110.076 110.722,110.02C110.795,109.986 110.846,109.97 110.896,109.925C110.911,109.886 110.962,109.875 111.034,109.813C111.085,109.785 111.107,109.768 111.201,109.768C111.273,109.718 111.346,109.718 111.389,109.707C111.462,109.684 111.483,109.645 111.556,109.623C111.65,109.606 111.672,109.606 111.773,109.589C111.817,109.573 111.86,109.573 111.889,109.534C111.984,109.511 112.027,109.511 112.078,109.489C112.172,109.478 112.201,109.478 112.237,109.478C112.31,109.461 112.339,109.439 112.411,109.439C112.477,106.873 112.477,105.61 112.506,103.061C112.527,100.473 112.549,99.227 112.6,96.662C112.622,94.119 112.672,92.805 112.687,90.262C112.716,87.719 112.716,86.428 112.767,83.868C112.687,83.818 112.687,83.767 112.6,83.739C112.527,83.639 112.506,83.622 112.382,83.561C112.339,83.488 112.31,83.449 112.237,83.359C112.172,83.303 112.15,83.281 112.078,83.225C111.984,83.136 111.955,83.074 111.889,82.974C111.86,82.867 111.86,82.828 111.788,82.739C111.744,82.638 111.672,82.582 111.628,82.493L111.483,82.225L111.483,81.392C111.578,81.33 111.628,81.297 111.672,81.241C111.788,81.152 111.817,81.124 111.86,81.079C111.933,80.995 111.984,80.978 112.078,80.889C112.15,80.822 112.172,80.811 112.237,80.727C112.31,80.682 112.339,80.66 112.411,80.598C112.506,80.554 112.527,80.52 112.6,80.475C112.687,80.414 112.716,80.375 112.81,80.313C112.861,80.285 112.904,80.224 112.977,80.185C113.071,80.118 113.071,80.112 113.136,80.056C113.187,80.017 113.216,79.995 113.288,79.944C113.288,79.9 113.31,79.883 113.354,79.849C113.375,79.771 113.426,79.76 113.47,79.71C113.47,78.022 113.499,77.167 113.499,75.467C113.499,73.774 113.499,72.891 113.549,71.208C113.549,69.504 113.564,68.66 113.564,66.944C113.583,65.836 113.589,65.09 113.591,64.236C114.847,63.535 116.119,62.859 117.406,62.209Z" style="fill-rule:nonzero;"/>
                    </g>
                    <g transform="matrix(-0.607613,-0.794233,-0.794233,0.607613,20.2889,57.0142)">
                        <path d="M-18.606,-34.282C-20.189,-20.25 -18.442,-6.302 -13.626,6.659C-15.341,5.672 -17.019,4.577 -18.606,3.286C-26.146,-2.845 -30.633,-11.312 -31.958,-20.225C-28.05,-25.419 -23.577,-30.13 -18.606,-34.282" style="fill:rgb(0,42,92);fill-rule:nonzero;"/>
                    </g>
                    <g transform="matrix(1,0,0,1,18.0469,42.1483)">
                        <path d="M0,27.277C6.32,25.662 12.408,23.338 18.172,20.334C18.096,20.308 18.025,20.291 17.951,20.271C17.594,20.166 17.252,20.044 16.898,19.935C15.787,19.595 14.676,19.251 13.582,18.869C13.504,18.841 13.422,18.806 13.34,18.777C1.695,14.689 -8.824,8.297 -17.732,0C-16.287,11.265 -9.773,21.378 0,27.277" style="fill:rgb(0,42,92);fill-rule:nonzero;"/>
                    </g>
                    <g transform="matrix(0.607612,0.794234,0.794234,-0.607612,13.269,4.8185)">
                        <path d="M16.94,-9.194C15.36,4.837 17.103,18.791 21.922,31.753C20.205,30.765 18.525,29.667 16.94,28.379C9.398,22.247 4.909,13.779 3.584,4.872C7.497,-0.326 11.969,-5.042 16.94,-9.194" style="fill:rgb(227,24,55);fill-rule:nonzero;"/>
                    </g>
                    <g transform="matrix(-0.820789,0.571231,0.571231,0.820789,85.2189,59.1736)">
                        <path d="M1.944,-41.909C7.003,-28.703 14.992,-17.112 25.261,-7.82C16.926,-8.165 8.656,-11.275 1.944,-17.253C-0.107,-19.082 -1.895,-21.097 -3.445,-23.232C-2.367,-29.664 -0.562,-35.918 1.944,-41.909" style="fill:rgb(0,139,176);fill-rule:nonzero;"/>
                    </g>
                    <g transform="matrix(1,0,0,1,56.7324,32.6656)">
                        <path d="M0,-27.275C-6.322,-25.658 -12.412,-23.333 -18.172,-20.329C-4.607,-16.4 7.607,-9.427 17.727,0C16.283,-11.262 9.771,-21.372 0,-27.275" style="fill:rgb(255,228,152);fill-rule:nonzero;"/>
                    </g>
                    <g transform="matrix(0.823133,-0.567849,-0.567849,-0.823133,25.2811,40.9572)">
                        <path d="M-13.016,-0.587C-8.004,12.607 0.056,24.088 10.263,33.408C1.929,33.03 -6.327,29.879 -13.016,23.872C-15.036,22.057 -16.796,20.067 -18.326,17.957C-17.24,11.595 -15.555,5.452 -13.016,-0.587" style="fill:rgb(0,42,92);fill-rule:nonzero;"/>
                    </g>
                </g>
            </g>
        </g>
    </g>
</svg>
